PathFileType	4	(X/Y/Z)	s05c0402.trc
DataRate	CameraRate	NumFrames	NumMarkers	Units	OrigDataRate	OrigDataStartFrame	OrigNumFrames
200	200	4	50	mm	200	1750	2000
Frame#	Time	racr			lacr			c7			jug			rlel			rdr			llel			ldr			s2			lic			ric			lasi			rasi			rpsi			lpsi			rgt			lgt			rth1			rth2			rth3			rth4			rlfc			rmfc			rsh1			rsh2			rsh3			rsh4			rlmal			rmmal			rcal			rtoe			rmt5			lth1			lth2			lth4			lth3			llfc			lmfc			lsh1			lsh2			lsh3			lsh4			llmal			lmmal			lcal			ltoe			lmt5			SBIKE			LBIKE			RBIKE			
		X1	Y1	Z1	X2	Y2	Z2	X3	Y3	Z3	X4	Y4	Z4	X5	Y5	Z5	X6	Y6	Z6	X7	Y7	Z7	X8	Y8	Z8	X9	Y9	Z9	X10	Y10	Z10	X11	Y11	Z11	X12	Y12	Z12	X13	Y13	Z13	X14	Y14	Z14	X15	Y15	Z15	X16	Y16	Z16	X17	Y17	Z17	X18	Y18	Z18	X19	Y19	Z19	X20	Y20	Z20	X21	Y21	Z21	X22	Y22	Z22	X23	Y23	Z23	X24	Y24	Z24	X25	Y25	Z25	X26	Y26	Z26	X27	Y27	Z27	X28	Y28	Z28	X29	Y29	Z29	X30	Y30	Z30	X31	Y31	Z31	X32	Y32	Z32	X33	Y33	Z33	X34	Y34	Z34	X35	Y35	Z35	X36	Y36	Z36	X37	Y37	Z37	X38	Y38	Z38	X39	Y39	Z39	X40	Y40	Z40	X41	Y41	Z41	X42	Y42	Z42	X43	Y43	Z43	X44	Y44	Z44	X45	Y45	Z45	X46	Y46	Z46	X47	Y47	Z47	X48	Y48	Z48	X49	Y49	Z49	X50	Y50	Z50	
1750	8.7500	749.157946	1243.876498	-123.993810	735.142829	1266.880614	-414.012613	733.968821	1340.010080	-268.793555	667.094360	1184.633408	-269.895399	562.452155	1115.821186	66.243165	676.593469	965.343827	-59.665029	526.454359	1139.820404	-604.839707	670.474332	958.536789	-511.410878	138.843465	1245.081117	-309.497322	302.024526	1216.414526	-433.295420	264.846301	1253.473478	-153.174725	327.756940	1152.329589	-387.330133	294.675909	1183.840544	-171.849489	177.958808	1292.147374	-269.011479	193.864580	1282.774925	-353.518161	203.467757	1143.192455	-121.771192	216.512084	1124.538579	-458.782668	298.099744	1076.971454	-104.938956	381.993117	1049.887689	-95.104856	440.080968	982.484597	-93.038220	403.002067	1077.832625	-109.234024	561.072345	889.803251	-109.122834	558.924260	884.028103	-222.882536	476.175302	824.978160	-93.182261	436.312662	745.956923	-102.983853	366.544808	697.363924	-108.413641	462.516949	725.991155	-123.179636	279.527871	586.923132	-120.551969	308.217396	607.343222	-195.472159	203.361614	594.683703	-166.973896	439.837346	416.518015	-159.969023	343.502730	453.491659	-94.349833	270.743718	990.864350	-466.436242	319.528252	921.835497	-453.269674	350.480647	932.699989	-435.201912	327.162506	831.387789	-452.395815	346.178074	686.073555	-421.970701	318.307851	677.916259	-317.001599	257.642522	593.903424	-457.493917	225.199780	513.322772	-448.916238	156.366835	457.499062	-454.881244	249.104223	496.898918	-423.502096	92.781229	354.681320	-454.404049	124.514342	363.240139	-377.284182	26.229241	373.367706	-413.320820	190.659846	128.659526	-392.655501	107.611416	193.380241	-464.210113	-263.772563	894.835841	-284.440866	-53.357347	80.008161	-474.820554	-53.333447	79.471589	-77.212387	
1751	8.7550	748.523524	1243.015360	-124.105656	734.016786	1267.009027	-413.925017	733.259587	1339.591510	-268.704838	666.181026	1184.150626	-270.325135	561.805829	1115.241494	65.902530	676.728978	965.481514	-60.193669	525.362610	1139.112976	-603.981728	670.456644	958.498908	-510.900760	138.176054	1246.043796	-309.132999	300.862644	1217.810545	-433.127417	264.007459	1252.896776	-152.894520	326.665944	1153.239135	-387.594157	293.832771	1183.307959	-171.663080	177.302688	1292.677460	-268.156265	193.545297	1283.484434	-352.635297	202.209449	1142.482720	-122.085539	216.261561	1125.581976	-459.403411	296.015445	1074.621242	-104.498291	379.491776	1046.169272	-94.520911	436.576105	977.976074	-92.308100	400.849047	1074.278655	-107.709935	556.343251	884.035441	-108.818720	554.403384	878.443620	-222.057207	471.902713	816.954582	-92.357552	433.603633	737.366102	-102.651422	364.832880	687.334998	-108.188384	460.109187	718.198753	-123.134258	279.847040	576.728651	-120.534262	308.022838	597.656254	-196.040640	204.290920	580.443127	-168.057175	447.208830	413.083558	-158.987121	348.836842	446.100473	-93.930346	272.925459	992.099446	-466.960236	322.889956	924.042821	-452.688929	353.471904	935.572177	-434.038769	332.200474	833.797600	-451.162171	351.721595	688.674712	-420.751679	324.265354	680.445645	-315.742976	261.822021	598.044166	-456.472584	227.202235	518.164367	-447.876436	156.997971	464.033715	-453.965831	250.736573	501.045522	-422.573429	91.279735	362.376374	-454.033667	123.025135	370.063964	-376.719284	25.149309	382.885725	-412.911515	182.208985	133.378718	-392.596840	101.192545	200.718125	-463.870873	-263.595709	894.857808	-284.192011	-53.351824	80.075643	-474.801029	-53.336521	79.475346	-77.194969	
1752	8.7600	747.929433	1242.340630	-124.481065	732.930941	1267.202836	-414.035637	732.534778	1339.293909	-268.919367	665.247697	1183.667817	-270.923220	561.211571	1114.812954	65.407798	676.848260	965.650576	-60.751427	524.404415	1138.516005	-603.301123	670.486752	958.482890	-510.516706	137.323360	1246.675753	-308.634359	299.689374	1218.877070	-432.746351	263.385643	1252.339045	-152.444104	325.877825	1154.360804	-388.369377	293.018821	1182.568469	-171.378585	175.658650	1292.992879	-266.328798	192.731308	1283.922276	-351.659467	200.781427	1141.582986	-122.277427	216.052861	1126.455225	-459.925034	293.848465	1071.994357	-103.935582	376.804733	1041.993149	-93.854088	432.740036	972.829948	-91.629187	398.587407	1069.900294	-106.532094	550.988627	877.386308	-108.287838	549.528774	872.269517	-221.253045	467.107294	808.214328	-91.625844	430.789093	727.858223	-102.358583	363.161579	676.274809	-108.013052	457.581733	709.480668	-123.281426	279.977658	565.652492	-120.699445	308.044229	587.238109	-196.533846	204.607102	566.471467	-169.062693	453.960673	408.826732	-157.969499	353.667110	437.443407	-94.135056	275.001529	992.987288	-467.569299	326.069554	926.082515	-452.530822	356.669764	938.396794	-434.407751	336.971456	836.242571	-449.498065	356.923626	691.282695	-419.675163	329.905419	682.986043	-314.423587	265.820466	602.171525	-455.252088	229.403354	523.085558	-446.801967	157.968812	470.593448	-453.080168	252.578355	505.335672	-421.682094	90.336949	370.160436	-453.625049	122.119357	376.828193	-376.220007	24.718822	392.630945	-412.609970	173.954126	138.239289	-392.431392	95.335008	208.417618	-463.540938	-263.514234	894.820776	-284.107592	-53.333508	80.111658	-474.787238	-53.334941	79.461917	-77.179785	
1753	8.7650	747.461690	1241.846040	-124.888589	731.895442	1267.492172	-414.326624	731.963502	1338.993250	-269.124699	664.386894	1183.139375	-272.497392	560.774645	1114.529388	64.909406	677.068362	965.896458	-61.413678	523.610131	1137.893620	-602.768991	670.585778	958.503069	-510.425675	136.321386	1246.968593	-308.116737	298.486992	1219.609365	-432.277441	263.365783	1251.673925	-151.688001	324.686978	1154.967452	-388.274891	291.961877	1181.753120	-170.980967	174.818632	1292.900228	-265.673672	191.753792	1284.355563	-350.716097	199.201498	1140.221122	-122.447414	215.915779	1127.077524	-460.415132	291.609372	1069.052005	-103.375747	373.930270	1037.524665	-93.099493	428.243512	967.198570	-90.815159	396.360421	1065.223312	-105.758045	544.928353	870.199443	-107.205440	544.111321	864.965829	-221.168097	462.293966	798.711959	-91.033391	427.791385	717.483788	-102.249744	361.442742	664.349471	-108.168272	454.758707	700.013411	-123.460035	280.834063	553.783719	-120.885061	308.031630	576.193709	-197.049384	205.579441	551.714038	-169.300858	460.036116	403.722619	-157.709344	358.692038	428.643522	-93.987448	276.649680	993.694004	-468.117684	329.011264	928.122250	-452.716485	359.770566	941.189625	-435.367168	341.499718	838.378545	-448.374666	362.234565	693.758093	-418.453378	335.138976	685.589318	-313.098513	269.868007	606.283261	-454.080348	231.758753	528.002165	-445.762166	159.274195	477.010757	-452.182126	254.553418	509.644340	-420.627525	89.753457	378.125186	-453.204819	121.548148	383.800059	-375.848200	24.679271	402.594509	-412.358051	166.232526	143.803076	-392.328320	89.919614	216.438528	-463.285085	-263.523024	894.812643	-284.138169	-53.329326	80.062516	-474.775081	-53.300480	79.411420	-77.186971	
